<svg width="33" height="33" viewBox="0 0 33 33" fill="none" xmlns="http://www.w3.org/2000/svg">
<path fill-rule="evenodd" clip-rule="evenodd" d="M16.4362 0.296997C7.52902 0.296997 0.30835 7.51767 0.30835 16.4248C0.30835 25.332 7.52902 32.5526 16.4362 32.5526C25.3433 32.5526 32.564 25.332 32.564 16.4248C32.564 7.51767 25.3433 0.296997 16.4362 0.296997ZM17.3822 27.199C10.7589 27.647 5.66663 15.3899 8.05602 13.009C10.2358 10.837 11.1011 11.6134 11.5105 13.4321C11.7391 14.4477 11.5694 15.6938 11.4165 16.8168C11.2836 17.7927 11.1634 18.6756 11.3283 19.2334C11.6828 20.4331 12.2914 21.3839 12.992 21.3164C13.6926 21.2489 14.7789 19.3642 12.4411 12.1573C10.7184 6.84704 15.3417 5.01134 15.7652 6.11656C15.9564 6.6155 15.6942 7.43242 15.3862 8.39211C15.0119 9.55832 14.57 10.9354 14.7917 12.2088C14.9732 13.251 15.1463 13.8299 15.3009 14.3469C15.4906 14.9814 15.6525 15.5226 15.7677 16.7129C15.8164 17.2168 15.793 17.8618 15.7681 18.5473C15.7051 20.2787 15.6328 22.2693 16.6904 22.9027C18.1667 23.7869 18.8142 19.4874 17.3926 11.7192C16.1161 4.74359 20.6974 6.89465 20.8183 9.00927C20.9392 11.1239 20.8051 14.3007 19.9506 18.7428C19.0961 23.185 19.7176 23.5508 20.8183 22.4336C21.919 21.3164 21.9805 20.5267 21.3428 16.1227C20.9082 13.1211 25.6065 11.5922 25.0999 15.5363C24.59 19.5063 22.2816 26.8676 17.3822 27.199Z" fill="#3B755F"/>
</svg>
